<svg width="418" height="185" viewBox="0 0 418 185" fill="none" xmlns="http://www.w3.org/2000/svg">
<path d="M313.5 185H400.583C407.464 185 411.019 177.116 406.264 172.143C373.945 138.351 281.256 52.332 209 92.6032C163.46 117.984 109.805 93.2003 68.2614 62.9432C42.6505 44.29 0 61.4318 0 93.1155V167.583C0 177.202 7.79771 185 17.4167 185H104.5H209H313.5Z" fill="#8CD9F6"/>
<path d="M118 102.413C47 44.275 3.81471e-06 -2.178 3.05176e-05 56.9999L3.58042e-05 167.596C3.33741e-05 177.215 7.79774 185 17.4167 185H104.5H209H313.5H400.583C410.202 185 418 177.202 418 167.583V124.613C418 115.628 407.632 110.607 400.583 116.178C383.167 129.942 360.712 157.735 327 165C273.964 176.43 189 160.552 118 102.413Z" fill="#2F80ED" fill-opacity="0.64"/>
</svg>
