<svg width="418" height="93" viewBox="0 0 418 93" fill="none" xmlns="http://www.w3.org/2000/svg">
<path fill-rule="evenodd" clip-rule="evenodd" d="M418 14.0208L400.583 16.3576C383.167 18.6944 348.333 23.368 313.5 39.7257C278.667 56.0833 243.833 84.1249 209 91.1353C174.167 98.1457 139.333 84.1249 104.5 70.1041C69.6667 56.0833 34.8333 42.0625 17.4167 35.0521L0 28.0416V0L17.4167 0C34.8333 0 69.6667 0 104.5 0C139.333 0 174.167 0 209 0C243.833 0 278.667 0 313.5 0C348.333 0 383.167 0 400.583 0H418V14.0208Z" fill="#00AD45"/>
<path fill-rule="evenodd" clip-rule="evenodd" d="M418 47.4444L400.583 42.9259C383.167 38.4074 348.333 29.3704 313.5 30.5C278.667 31.6296 243.833 42.9259 209 42.9259C174.167 42.9259 139.333 31.6296 104.5 32.7593C69.6667 33.8889 34.8333 47.4444 17.4167 54.2222L0 61V-3.8147e-06H17.4167C34.8333 -3.8147e-06 69.6667 -3.8147e-06 104.5 -3.8147e-06C139.333 -3.8147e-06 174.167 -3.8147e-06 209 -3.8147e-06C243.833 -3.8147e-06 278.667 -3.8147e-06 313.5 -3.8147e-06C348.333 -3.8147e-06 383.167 -3.8147e-06 400.583 -3.8147e-06H418V47.4444Z" fill="#5ECC62"/>
</svg>
